<svg width="127" height="27" viewBox="0 0 127 27" fill="none" xmlns="http://www.w3.org/2000/svg">
<path d="M18.5865 14.3006C18.4784 14.8007 18.3047 15.2844 18.07 15.7391C17.8201 16.1884 17.5135 16.6037 17.1578 16.9749C16.7866 17.3306 16.3713 17.6372 15.922 17.8871C15.4669 18.1208 14.9833 18.2945 14.4834 18.4037C13.9763 18.4923 13.4602 18.5176 12.9468 18.4789C12.438 18.4194 11.9391 18.2941 11.4625 18.1061C10.9883 17.9051 10.5422 17.6436 10.1351 17.328C9.74334 16.9947 9.39611 16.6123 9.10201 16.1903C8.82543 15.7594 8.60565 15.2945 8.44813 14.8073C8.30919 14.3121 8.23339 13.8013 8.22255 13.287L11.6783 13.287C11.6948 13.4593 11.7254 13.6299 11.7698 13.7971C11.8288 13.9591 11.9021 14.1156 11.9889 14.2646C12.0963 14.4053 12.2155 14.5365 12.3453 14.6569C12.4857 14.7603 12.6357 14.8501 12.7932 14.925C12.9548 14.9848 13.1226 15.0264 13.2934 15.0493C13.4677 15.0617 13.6428 15.0584 13.8165 15.0394C13.9816 14.9964 14.1425 14.9384 14.2971 14.8662C14.4476 14.7691 14.5897 14.6598 14.7221 14.5392C14.8427 14.4068 14.952 14.2647 15.0491 14.1142C15.1213 13.9585 15.1793 13.7965 15.2223 13.6303C15.246 13.4537 15.2548 13.2755 15.2485 13.0974C15.223 12.9268 15.1803 12.7592 15.121 12.5972C15.046 12.4397 14.9563 12.2898 14.8529 12.1493C14.7325 12.0196 14.6012 11.9003 14.4606 11.7929C14.3123 11.7048 14.1557 11.6314 13.993 11.5739C13.8226 11.5317 13.6485 11.5054 13.4732 11.4954L0 11.4954L0 8.05273L13.4601 8.05273C13.9745 8.06175 14.4856 8.13758 14.9804 8.27832C15.4676 8.43584 15.9324 8.65562 16.3634 8.9322C16.7854 9.22629 17.1678 9.57353 17.5011 9.96533C17.8187 10.3657 18.0835 10.8052 18.289 11.2731C18.4764 11.7476 18.6017 12.2443 18.6617 12.7509C18.7015 13.2685 18.6763 13.7892 18.5865 14.3006Z" fill="black"/>
<path d="M22.5098 15.0752C22.3271 15.9649 22.02 16.8245 21.5977 17.6286C21.1614 18.423 20.6191 19.1544 19.9859 19.8028C19.3366 20.435 18.6054 20.9772 17.8117 21.4146C17.0069 21.8354 16.1476 22.1424 15.2583 22.3267C14.3684 22.4938 13.4599 22.5389 12.5578 22.4608C11.6601 22.3634 10.7801 22.1433 9.94225 21.8069C9.1085 21.4523 8.32743 20.9847 7.62098 20.4174C6.92773 19.8329 6.31631 19.1577 5.80319 18.41C5.3056 17.6514 4.91607 16.8272 4.64582 15.9612C4.39327 15.0885 4.2602 14.1855 4.25022 13.277L7.62751 13.277C7.63719 13.8512 7.72182 14.4216 7.87926 14.9739C8.05243 15.5184 8.29762 16.0374 8.60833 16.517C8.93653 16.989 9.32446 17.4165 9.76243 17.7888C10.2104 18.1461 10.7041 18.4419 11.2304 18.6683C11.762 18.8799 12.3194 19.0196 12.888 19.0835C13.4603 19.1289 14.0361 19.1003 14.6011 18.9985C15.1611 18.8811 15.7023 18.6875 16.2097 18.4231C16.7111 18.1447 17.1739 17.8017 17.5861 17.403C17.9853 16.988 18.3292 16.5232 18.6094 16.0201C18.871 15.5115 19.0645 14.9706 19.1849 14.4115C19.2856 13.8463 19.3131 13.2705 19.2666 12.6983C19.2042 12.1295 19.0645 11.5718 18.8514 11.0408C18.6266 10.5167 18.3342 10.0243 17.9817 9.57607C17.6092 9.13919 17.1817 8.75237 16.7099 8.42524C16.2303 8.11453 15.7113 7.86933 15.1668 7.69616C14.6145 7.53873 14.0441 7.4541 13.4699 7.44442L0 7.44442L0 4.05078L13.4601 4.05078C14.3667 4.06054 15.2677 4.19475 16.1378 4.44965C17.0046 4.72053 17.8297 5.11001 18.5898 5.60702C19.3376 6.11995 20.0129 6.73139 20.5972 7.4248C21.1651 8.13149 21.6337 8.91248 21.99 9.74608C22.325 10.5844 22.545 11.4642 22.6439 12.3616C22.7232 13.268 22.6781 14.181 22.5098 15.0752Z" fill="black"/>
<path d="M26.4822 15.8631C26.2217 17.1446 25.7814 18.3829 25.1744 19.5412C24.5514 20.687 23.77 21.7392 22.8531 22.6668C21.924 23.5817 20.872 24.363 19.7276 24.988C18.5693 25.595 17.331 26.0353 16.0495 26.2958C14.7699 26.5392 13.4625 26.6019 12.1654 26.4822C10.8649 26.3469 9.59022 26.0277 8.37948 25.534C7.17637 25.0299 6.05041 24.3585 5.03488 23.5397C4.03512 22.704 3.15504 21.7348 2.41936 20.6594C1.70097 19.5679 1.1407 18.3802 0.755232 17.1317C0.385076 15.8799 0.192481 14.5824 0.183087 13.277L3.62577 13.277C3.63646 14.2434 3.77946 15.2037 4.05079 16.1312C4.33884 17.0564 4.75481 17.9368 5.28662 18.7468C5.83093 19.5447 6.48217 20.2641 7.22211 20.8849C7.97561 21.4902 8.80829 21.9896 9.69705 22.3692C10.5944 22.7302 11.5372 22.9657 12.4989 23.0689C13.4568 23.1507 14.4213 23.1023 15.3662 22.925C16.3144 22.7274 17.2301 22.3972 18.0863 21.9442C18.9333 21.4798 19.7131 20.9024 20.4043 20.2278C21.0831 19.5394 21.6649 18.7617 22.1339 17.9163C22.5868 17.0601 22.917 16.1444 23.1147 15.1962C23.292 14.2469 23.3393 13.2779 23.2553 12.3158C23.1531 11.3543 22.9187 10.4115 22.5589 9.51396C22.1792 8.62521 21.6798 7.79252 21.0746 7.03902C20.453 6.29889 19.7336 5.64667 18.9364 5.10027C17.317 4.02192 15.4155 3.44532 13.4699 3.44268L0 3.44268L0 0L13.4601 0C14.7698 0.00816939 16.0719 0.200777 17.3278 0.572145C18.5765 0.958638 19.7642 1.52001 20.8555 2.23954C21.9332 2.97246 22.9027 3.85287 23.7359 4.85506C24.5573 5.86931 25.232 6.99411 25.74 8.19639C26.2333 9.40839 26.5525 10.6841 26.6881 11.9856C26.8008 13.2814 26.7314 14.5866 26.4822 15.8631Z" fill="black"/>
<path d="M31.9512 24.1806V0.650985H40.0898C41.6397 0.625129 43.1782 0.918706 44.6095 1.51341C45.8791 2.03991 46.9699 2.92129 47.751 4.05188C48.5455 5.27453 48.9451 6.71162 48.8959 8.16875C48.9397 9.57262 48.576 10.9591 47.8487 12.1609C47.1415 13.2727 46.1225 14.1518 44.9188 14.6885C43.5522 15.2897 42.0709 15.5859 40.5782 15.5563H35.5268V24.1806H31.9512ZM35.4834 12.7087H40.4805C41.8256 12.7579 43.1378 12.2856 44.1429 11.3906C44.6147 10.9547 44.9857 10.4212 45.2303 9.82733C45.4748 9.23344 45.587 8.59342 45.559 7.95179C45.5966 7.31871 45.4835 6.68575 45.2288 6.10491C44.9741 5.52407 44.5852 5.01192 44.0941 4.61056C43.0182 3.80156 41.6954 3.38953 40.3503 3.44438H35.4671L35.4834 12.7087Z" fill="black"/>
<path d="M54.479 24.5058C53.4855 24.5246 52.5 24.3246 51.5925 23.92C50.793 23.5571 50.1135 22.9738 49.6338 22.2385C49.1389 21.4382 48.8899 20.5103 48.9176 19.5699C48.9176 17.704 49.5796 16.31 50.9034 15.3879C52.2273 14.4658 54.3362 13.974 57.2299 13.9126L59.9971 13.8312V12.6108C60.02 12.1919 59.9551 11.7729 59.8065 11.3806C59.6579 10.9883 59.429 10.6314 59.1344 10.3327C58.3915 9.72297 57.4382 9.43063 56.4811 9.51906C55.6404 9.50356 54.8113 9.71733 54.083 10.1374C53.7229 10.3603 53.414 10.6567 53.1765 11.0072C52.939 11.3577 52.7782 11.7545 52.7048 12.1714H49.6609C49.6922 11.1548 50.0308 10.1714 50.6322 9.35092C51.2477 8.54861 52.0798 7.93887 53.0304 7.59352C54.1864 7.19518 55.4055 7.01136 56.6276 7.05111C57.9229 7.00685 59.214 7.22073 60.4257 7.6803C61.3411 8.03319 62.1164 8.67495 62.634 9.50821C63.1386 10.3999 63.3883 11.4132 63.3556 12.4372V24.1803H60.4094L60.1327 21.0886C59.6523 22.2176 58.8158 23.1585 57.7508 23.7681C56.7354 24.2734 55.6131 24.5264 54.479 24.5058ZM55.5642 22.0812C56.103 22.0809 56.6375 21.9854 57.1431 21.7992C57.6524 21.613 58.1301 21.3495 58.5592 21.0181C58.9615 20.7076 59.3067 20.3295 59.5793 19.9007C59.8232 19.521 59.96 19.0825 59.9753 18.6315V15.849L57.6965 15.8978C56.7012 15.8877 55.7089 16.0081 54.7449 16.2558C54.0348 16.4312 53.3904 16.8079 52.8893 17.3406C52.441 17.8707 52.2102 18.551 52.2436 19.2444C52.2244 19.6455 52.2999 20.0454 52.4639 20.412C52.6279 20.7785 52.8759 21.1013 53.1877 21.3544C53.873 21.8661 54.7153 22.1231 55.5696 22.0812H55.5642Z" fill="black"/>
<path d="M70.3332 24.4083C69.5139 24.4394 68.6968 24.3066 67.9296 24.0178C67.3829 23.8016 66.9075 23.4372 66.5568 22.9655C66.2308 22.5219 66.01 22.01 65.9112 21.4685C65.8076 20.8976 65.7567 20.3184 65.7592 19.7382V0H69.1938V19.3802C69.1514 20.0109 69.3131 20.6384 69.6549 21.1701C69.8274 21.3837 70.0445 21.557 70.291 21.6779C70.5375 21.7988 70.8074 21.8643 71.0819 21.8699L71.9609 21.9024V24.1154C71.6868 24.2024 71.4078 24.2731 71.1253 24.327C70.8643 24.3778 70.5991 24.405 70.3332 24.4083Z" fill="black"/>
<path d="M77.9835 24.5058C76.9882 24.5245 76.001 24.3245 75.0915 23.92C74.2855 23.5605 73.5999 22.9768 73.1165 22.2385C72.6272 21.4328 72.3857 20.5009 72.422 19.559C72.422 17.6931 73.084 16.2992 74.4079 15.3771C75.7318 14.455 77.8424 13.9668 80.7398 13.9126L83.5069 13.8312V12.6108C83.5298 12.1919 83.4649 11.7729 83.3163 11.3806C83.1678 10.9883 82.9388 10.6314 82.6442 10.3327C81.9014 9.72297 80.948 9.43063 79.991 9.51906C79.1485 9.50366 78.3177 9.71739 77.5874 10.1374C77.2291 10.3611 76.9221 10.6579 76.6865 11.0085C76.4508 11.359 76.2919 11.7553 76.2201 12.1714H73.1925C73.2218 11.1553 73.5585 10.1719 74.1583 9.35092C74.7789 8.55643 75.6124 7.9545 76.5619 7.61521C77.708 7.21277 78.9177 7.02164 80.1321 7.05111C81.4273 7.00685 82.7184 7.22073 83.9301 7.6803C84.8439 8.0335 85.6174 8.67533 86.133 9.50822C86.6395 10.3994 86.891 11.4127 86.86 12.4372V24.1803H83.9138L83.6371 21.0886C83.1546 22.2179 82.3163 23.1588 81.2498 23.7681C80.236 24.2725 79.1157 24.5256 77.9835 24.5058ZM79.0686 22.0812C79.6074 22.0809 80.1419 21.9854 80.6475 21.7992C81.1568 21.613 81.6345 21.3495 82.0636 21.0181C82.4645 20.7077 82.8079 20.3296 83.0783 19.9007C83.3239 19.5215 83.4626 19.083 83.4798 18.6315V15.849L81.2009 15.8978C80.2039 15.8878 79.2098 16.0081 78.2439 16.2558C77.5338 16.4312 76.8894 16.8079 76.3883 17.3406C75.9414 17.8713 75.7126 18.5517 75.748 19.2444C75.7289 19.6455 75.8043 20.0454 75.9683 20.412C76.1323 20.7785 76.3803 21.1013 76.6921 21.3544C77.3774 21.8661 78.2197 22.1231 79.074 22.0812H79.0686Z" fill="black"/>
<path d="M95.4166 24.506C94.4302 24.553 93.4461 24.3731 92.5402 23.98C91.6343 23.5869 90.8308 22.9912 90.1916 22.2387C88.9219 20.7236 88.2871 18.5395 88.2871 15.6864C88.2548 14.1297 88.5143 12.5806 89.0521 11.1193C89.4981 9.91018 90.2931 8.86059 91.3364 8.10356C92.4482 7.35496 93.7676 6.9754 95.1073 7.01875C95.792 7.00837 96.4743 7.10164 97.1311 7.29537C97.6824 7.46128 98.2082 7.70219 98.6937 8.01135C99.4413 8.48697 100.064 9.13409 100.511 9.89893V0H104.011V24.1805H101.407L101.016 20.7308C100.877 21.1498 100.695 21.5533 100.473 21.9349C100.199 22.3975 99.8554 22.8147 99.4534 23.1716C98.9765 23.5918 98.4241 23.9176 97.8256 24.1317C97.0517 24.4005 96.2356 24.5273 95.4166 24.506ZM96.084 21.8861C97.6466 21.8861 98.7968 21.398 99.4696 20.4108C100.142 19.4236 100.511 17.8181 100.511 15.5725C100.528 14.4802 100.368 13.3924 100.039 12.3506C99.7928 11.5525 99.2987 10.8535 98.6286 10.3546C97.8865 9.8773 97.0143 9.64227 96.1328 9.68197C95.5358 9.66455 94.9425 9.78067 94.3961 10.0219C93.8498 10.263 93.3643 10.6232 92.975 11.076C92.1611 11.998 91.7542 13.5005 91.7542 15.5725C91.7542 17.6445 92.1231 19.1741 92.8665 20.2589C93.2168 20.7845 93.6972 21.2106 94.261 21.4958C94.8248 21.7809 95.4528 21.9154 96.084 21.8861Z" fill="black"/>
<path d="M110.034 0.667236V4.10067H106.534V0.667236H110.034ZM109.968 7.35511V24.1697H106.604V7.35511H109.968Z" fill="black"/>
<path d="M112.54 24.1808V7.36618H115.942V9.76362C116.233 9.28031 116.6 8.84639 117.027 8.47811C117.533 8.05121 118.112 7.72032 118.737 7.50178C120.465 6.92574 122.346 7.01667 124.01 7.75671C124.913 8.17311 125.669 8.85166 126.181 9.70395C126.762 10.7501 127.044 11.9362 126.995 13.132V24.1808H123.511V13.5225C123.549 13.0334 123.482 12.5418 123.314 12.0807C123.147 11.6196 122.883 11.1995 122.54 10.8484C121.851 10.2468 120.958 9.93223 120.044 9.96973C119.378 9.96668 118.716 10.0824 118.091 10.3114C117.507 10.5138 116.989 10.8721 116.593 11.3474C116.213 11.8417 116.021 12.4549 116.051 13.0777V24.1808H112.54Z" fill="black"/>
</svg>
